#!OML:ASF H:\Terrain\Patient Classification 1\Walking\liu\liu.ASF
:FULLY-SPECIFIED
:DEGREES
97
root 9.406650 16.292801 -23.653000 3.337900 -2.325640 3.815860
lowerback -3.487135 -1.034720 -2.307210
upperback -0.142986 -1.237545 1.085990
thorax 1.955665 -0.667240 2.299920
lowerneck -10.519100 -2.461670 -6.311850
upperneck 9.878200 -2.775950 5.620250
head 5.247200 -1.105935 2.654235
rclavicle -0.000000 0.000000
rhumerus -21.750799 5.922700 -43.551102
rradius 19.141600
rwrist -10.855800
rhand -15.311400 -11.967300
rfingers 3.562510
rthumb -1.959455 -26.939150
lclavicle -0.000000 0.000000
lhumerus -10.281500 -10.669450 43.652950
lradius 17.474449
lwrist 4.353975
lhand -7.778400 -12.660550
lfingers 3.562510
lthumb 5.313850 2.195070
rfemur -16.481400 1.704160 7.987650
rtibia 23.172001
rfoot -10.397950 -5.343150
rtoes -9.313650
lfemur -2.551645 0.234704 -14.659000
ltibia 10.757700
lfoot -9.219050 3.692260
ltoes -0.448856
98
root 9.407920 16.285700 -23.533199 3.264210 -1.841540 3.628410
lowerback -3.450530 -1.070330 -2.163990
upperback -0.166314 -1.298260 1.095655
thorax 1.911705 -0.693330 2.223475
lowerneck -10.328850 -2.477370 -6.379300
upperneck 9.870000 -2.811575 5.666900
head 5.217550 -1.127660 2.677395
rclavicle 0.000000 0.000000
rhumerus -21.948900 5.953000 -43.585751
rradius 19.138599
rwrist -10.976300
rhand -15.516350 -11.710900
rfingers 3.562510
rthumb -2.157365 -26.678949
lclavicle 0.000000 0.000000
lhumerus -10.268650 -10.800400 43.688049
lradius 17.761950
lwrist 4.453745
lhand -7.609750 -12.653400
lfingers 3.562510
lthumb 5.476500 2.193750
rfemur -16.659651 1.843530 7.976450
rtibia 22.486300
rfoot -10.291150 -5.152350
rtoes -9.300400
lfemur -2.105015 0.053806 -14.572300
ltibia 10.405550
lfoot -9.218650 3.726000
ltoes -0.857715
99
root 9.406970 16.282400 -23.406601 3.284300 -1.425490 3.636060
lowerback -3.517975 -1.115765 -2.135380
upperback -0.193183 -1.358615 1.096680
thorax 1.926970 -0.722555 2.199950
lowerneck -10.183050 -2.464565 -6.492850
upperneck 9.939550 -2.796935 5.728850
head 5.218950 -1.127455 2.724885
rclavicle 0.000000 -0.000000
rhumerus -22.032150 5.926650 -43.534100
rradius 19.014151
rwrist -11.042000
rhand -15.518100 -11.488800
rfingers 3.562510
rthumb -2.159040 -26.456751
lclavicle 0.000000 -0.000000
lhumerus -10.286400 -10.956750 43.767200
lradius 18.058649
lwrist 4.729880
lhand -7.426850 -12.531350
lfingers 3.562510
lthumb 5.652900 2.306315
rfemur -16.891350 2.135235 7.808250
rtibia 21.848850
rfoot -10.311050 -5.002850
rtoes -8.683600
lfemur -1.649170 0.075997 -14.560350
ltibia 9.982450
lfoot -9.203250 3.565155
ltoes -0.739980
100
root 9.405940 16.279800 -23.276300 3.415100 -1.101170 3.819660
lowerback -3.647800 -1.174600 -2.228915
upperback -0.212268 -1.423845 1.081490
thorax 1.991030 -0.757485 2.225600
lowerneck -10.188850 -2.438380 -6.544750
upperneck 10.053950 -2.758270 5.755100
head 5.258250 -1.111450 2.753810
rclavicle 0.000000 0.000000
rhumerus -21.982300 5.836650 -43.433201
rradius 18.791800
rwrist -10.956400
rhand -15.268350 -11.447900
rfingers 3.562510
rthumb -1.917880 -26.420500
lclavicle 0.000000 0.000000
lhumerus -10.300250 -11.166700 43.821400
lradius 18.327850
lwrist 5.044500
lhand -7.506900 -12.535900
lfingers 3.562510
lthumb 5.575700 2.305925
rfemur -17.189501 2.478560 7.508300
rtibia 21.245600
rfoot -10.379950 -4.764710
rtoes -7.887450
lfemur -1.209365 0.164767 -14.617750
ltibia 9.454650
lfoot -9.112200 3.288815
ltoes -0.128247
101
root 9.408040 16.275299 -23.146900 3.476500 -0.781887 4.024710
lowerback -3.739765 -1.190685 -2.296510
upperback -0.196028 -1.432985 1.017285
thorax 2.060635 -0.764470 2.192015
lowerneck -10.202800 -2.505090 -6.540400
upperneck 10.121800 -2.850375 5.726250
head 5.297700 -1.156675 2.729765
rclavicle 0.000000 0.000000
rhumerus -22.052950 5.704000 -43.405998
rradius 18.754499
rwrist -10.723400
rhand -15.096200 -11.866850
rfingers 3.562510
rthumb -1.751625 -26.842300
lclavicle 0.000000 0.000000
lhumerus -10.295450 -11.570400 43.854698
lradius 18.616800
lwrist 5.312600
lhand -7.726550 -12.753100
lfingers 3.562510
lthumb 5.363900 2.099925
rfemur -17.445450 2.694065 7.225400
rtibia 20.643000
rfoot -10.420600 -4.516255
rtoes -8.470600
lfemur -0.662745 0.180091 -14.704000
ltibia 8.788700
lfoot -8.941550 3.151310
ltoes -0.375684
102
root 9.410570 16.282101 -23.020300 3.345630 -0.424719 3.998500
lowerback -3.753875 -1.173350 -2.195785
upperback -0.153615 -1.414680 0.950900
thorax 2.102245 -0.754440 2.066325
lowerneck -10.100800 -2.580840 -6.452100
upperneck 10.093400 -2.966085 5.605050
head 5.277700 -1.219240 2.649370
rclavicle -0.000000 -0.000000
rhumerus -22.147900 5.458500 -43.376701
rradius 18.789150
rwrist -10.555850
rhand -14.829600 -12.184500
rfingers 3.562510
rthumb -1.494185 -27.163900
lclavicle -0.000000 -0.000000
lhumerus -10.313900 -11.977650 43.896301
lradius 18.916300
lwrist 5.475450
lhand -7.881800 -12.967750
lfingers 3.562510
lthumb 5.214100 1.892920
rfemur -17.561350 2.828195 7.102850
rtibia 20.026550
rfoot -10.455050 -4.316745
rtoes -8.580400
lfemur 0.057500 0.167892 -14.675200
ltibia 8.015650
lfoot -8.743700 3.062180
ltoes -1.165890
103
root 9.410570 16.294399 -22.897900 3.154540 0.023509 3.901010
lowerback -3.687595 -1.205095 -2.095020
upperback -0.144146 -1.467715 0.941880
thorax 2.074850 -0.778280 1.995690
lowerneck -9.977250 -2.562010 -6.475700
upperneck 10.157150 -2.953995 5.608500
head 5.276750 -1.219200 2.659045
rclavicle -0.000000 0.000000
rhumerus -22.223000 5.327700 -43.316799
rradius 18.705299
rwrist -10.444300
rhand -14.854450 -12.075050
rfingers 3.562510
rthumb -1.518190 -27.054100
lclavicle -0.000000 0.000000
lhumerus -10.393250 -12.106950 43.977451
lradius 19.187050
lwrist 5.594850
lhand -7.705800 -12.906250
lfingers 3.562510
lthumb 5.383850 1.945740
rfemur -17.643850 2.918280 7.015450
rtibia 19.382549
rfoot -10.414850 -4.130460
rtoes -8.266300
lfemur 0.809960 0.127110 -14.590050
ltibia 7.225950
lfoot -8.576800 2.833535
ltoes -1.188505
104
root 9.408350 16.288500 -22.770399 3.111030 0.418267 4.170300
lowerback -3.676440 -1.255335 -2.238885
upperback -0.150449 -1.521375 0.902070
thorax 2.073040 -0.807115 2.029375
lowerneck -10.045950 -2.514695 -6.485800
upperneck 10.381250 -2.914725 5.692850
head 5.368750 -1.191910 2.706700
rclavicle -0.000000 -0.000000
rhumerus -22.341749 5.323250 -43.315701
rradius 18.607651
rwrist -10.304450
rhand -15.179400 -12.254150
rfingers 3.562510
rthumb -1.831960 -27.228251
lclavicle -0.000000 -0.000000
lhumerus -10.444050 -12.270400 44.053799
lradius 19.421400
lwrist 5.811550
lhand -7.394800 -12.720450
lfingers 3.562510
lthumb 5.683850 2.115500
rfemur -17.817400 3.022750 6.702300
rtibia 18.725550
rfoot -10.371400 -3.851430
rtoes -9.047850
lfemur 1.484980 0.100311 -14.701900
ltibia 6.447200
lfoot -8.429400 2.613290
ltoes -1.223005
105
root 9.407210 16.285801 -22.633600 3.257030 0.703764 4.280650
lowerback -3.804280 -1.281865 -2.296080
upperback -0.149433 -1.544120 0.853330
thorax 2.148650 -0.820535 2.003030
lowerneck -10.165150 -2.487945 -6.299500
upperneck 10.496650 -2.927495 5.677700
head 5.428550 -1.181445 2.671025
rclavicle -0.000000 0.000000
rhumerus -22.409250 5.227000 -43.331451
rradius 18.516951
rwrist -10.241850
rhand -15.073500 -12.101850
rfingers 3.562510
rthumb -1.729700 -27.077700
lclavicle -0.000000 0.000000
lhumerus -10.542450 -12.525450 44.106098
lradius 19.742701
lwrist 6.040000
lhand -7.340200 -12.605000
lfingers 3.562510
lthumb 5.736500 2.228020
rfemur -18.048849 3.235030 6.431800
rtibia 18.080799
rfoot -10.407400 -3.602205
rtoes -9.014150
lfemur 2.085700 0.124238 -14.735750
ltibia 5.676800
lfoot -8.294950 2.509560
ltoes -1.852640
106
root 9.407370 16.294500 -22.497999 3.521130 0.986836 4.001540
lowerback -3.944165 -1.302715 -2.174725
upperback -0.207741 -1.579180 0.903320
thorax 2.166115 -0.835080 1.978455
lowerneck -10.084700 -2.472535 -6.148700
upperneck 10.455750 -2.925235 5.540800
head 5.388050 -1.185975 2.592220
rclavicle 0.000000 -0.000000
rhumerus -22.442249 5.127000 -43.246498
rradius 18.379850
rwrist -10.184700
rhand -14.854750 -11.723900
rfingers 3.562510
rthumb -1.518435 -26.702950
lclavicle 0.000000 -0.000000
lhumerus -10.805600 -12.803800 44.305199
lradius 20.120899
lwrist 6.270400
lhand -7.570800 -12.442000
lfingers 3.562510
lthumb 5.514100 2.403160
rfemur -18.325100 3.538130 6.335450
rtibia 17.474400
rfoot -10.440450 -3.563385
rtoes -8.617100
lfemur 2.626280 0.158410 -14.551950
ltibia 4.870935
lfoot -8.128850 2.388440
ltoes -1.949255
107
root 9.404290 16.281300 -22.365299 3.790380 1.254860 3.884780
lowerback -4.081840 -1.326670 -2.122100
upperback -0.278826 -1.612225 0.939255
thorax 2.171605 -0.849355 1.978390
lowerneck -9.989200 -2.474950 -6.184300
upperneck 10.484550 -2.919890 5.497500
head 5.379400 -1.194335 2.583870
rclavicle -0.000000 0.000000
rhumerus -22.519300 5.050750 -43.195850
rradius 18.259600
rwrist -10.108200
rhand -15.023300 -11.789350
rfingers 3.562510
rthumb -1.681250 -26.766001
lclavicle -0.000000 0.000000
lhumerus -11.030800 -12.980200 44.510601
lradius 20.358400
lwrist 6.416950
lhand -7.592200 -12.425350
lfingers 3.562510
lthumb 5.493450 2.420895
rfemur -18.642349 3.795080 6.165400
rtibia 16.913000
rfoot -10.461550 -3.579665
rtoes -9.430150
lfemur 3.203525 0.194289 -14.441850
ltibia 3.925930
lfoot -7.849400 2.205210
ltoes -1.464240
108
root 9.399890 16.256701 -22.235001 3.805830 1.641830 4.108240
lowerback -4.089160 -1.381580 -2.248280
upperback -0.294374 -1.673030 0.927400
thorax 2.172395 -0.881520 2.029325
lowerneck -10.007000 -2.487165 -6.329250
upperneck 10.620400 -2.926915 5.602450
head 5.442150 -1.197650 2.652095
rclavicle 0.000000 0.000000
rhumerus -22.695250 5.056200 -43.217899
rradius 18.264851
rwrist -9.958150
rhand -15.129750 -12.000400
rfingers 3.562510
rthumb -1.784015 -26.975349
lclavicle 0.000000 0.000000
lhumerus -11.146900 -12.964350 44.660549
lradius 20.489100
lwrist 6.394200
lhand -7.448000 -12.554300
lfingers 3.562510
lthumb 5.632500 2.284440
rfemur -18.839399 3.955960 5.824850
rtibia 16.396601
rfoot -10.517950 -3.540025
rtoes -9.964350
lfemur 4.099985 0.181721 -14.510400
ltibia 2.651565
lfoot -7.405450 2.044010
ltoes -1.429135
109
root 9.394740 16.245501 -22.108000 3.702660 1.965180 4.349650
lowerback -3.730555 -1.474830 -2.730995
upperback -0.493805 -1.785935 1.212805
thorax 1.823925 -0.936110 2.607910
lowerneck -10.001550 -2.470940 -6.587300
upperneck 10.886550 -2.789330 5.407250
head 5.521950 -1.181780 2.653285
rclavicle -0.000000 0.000000
rhumerus -23.217350 5.628600 -43.001450
rradius 18.447451
rwrist -9.970100
rhand -15.179800 -12.316500
rfingers 3.562510
rthumb -1.832360 -27.290600
lclavicle -0.000000 0.000000
lhumerus -11.600600 -12.625050 45.362000
lradius 20.624649
lwrist 6.288000
lhand -7.401000 -12.596350
lfingers 3.562510
lthumb 5.677850 2.239940
rfemur -18.977551 4.205430 5.444500
rtibia 15.933600
rfoot -10.590750 -3.494770
rtoes -10.095600
lfemur 5.782950 0.206406 -14.578900
ltibia -0.000000
lfoot -6.320950 1.837405
ltoes -1.772090
110
root 9.390410 16.242399 -21.977200 3.738300 2.278140 4.317180
lowerback -4.109890 -1.459705 -2.238305
upperback -0.260051 -1.771735 0.816300
thorax 2.222585 -0.930610 1.892615
lowerneck -9.966550 -2.462980 -6.263700
upperneck 10.640750 -2.939745 5.674850
head 5.443950 -1.190940 2.667265
rclavicle -0.000000 0.000000
rhumerus -22.950951 5.107650 -43.397949
rradius 18.293751
rwrist -9.904950
rhand -15.263050 -12.175400
rfingers 3.562510
rthumb -1.912755 -27.148100
lclavicle -0.000000 0.000000
lhumerus -11.480750 -13.290250 44.822601
lradius 20.871450
lwrist 6.542550
lhand -7.176700 -12.611550
lfingers 3.562510
lthumb 5.894150 2.212555
rfemur -19.189400 4.514165 5.172800
rtibia 15.529450
rfoot -10.641000 -3.584710
rtoes -10.778250
lfemur 6.017950 0.235402 -14.515400
ltibia -0.000000
lfoot -6.491800 1.689985
ltoes -2.178185
